<svg xmlns="http://www.w3.org/2000/svg" viewBox="0 0 13.419 1.847" height="7" width="51"><path d="M13.136 1.307c-.04-.03-.032-.045-.071-.071-.082-.056-.082-.053-.164-.109-.19-.13-.352.013-.352-.209 0-.225.148-.1.336-.23.08-.056.053-.095.132-.15.04-.027.019-.054.058-.083.024-.024.059-.005.08-.034.066-.13.211-.275.264-.421-.161 0-.357.034-.505.05-.034.008-.064.035-.095.048-.04.026.013.103-.027.132-.082.056-.135-.018-.214.037-.262.183-.196.31-.5.408-.286.09-.315.042-.606-.024-.09-.021.037-.103.111-.156.04-.027.071.016.111-.013a.377.377 0 0 0 .053-.061c.066-.13.164-.236.217-.384-.161 0-.302.016-.45.032-.034.008-.053.037-.084.05-.04.026-.067-.008-.109.018-.08.056-.087.048-.167.104-.262.182-.18.328-.484.426-.286.092-.317.08-.611.01-.09-.02.12-.024.196-.076.04-.03-.021-.109.018-.138.022-.024.127.024.149-.003.063-.13.05-.251.103-.4-.162 0-.275-.066-.424-.047-.034.008-.008.145-.04.161C10.02.201 9.98.14 9.94.17c-.082.056-.111.016-.19.072-.262.182-.16.428-.477.479-.894.14-.915-.04-1.82-.04S6.548.675 5.643.675 4.738.65 3.833.65C2.93.651 2.93.595 2.018.595c-.907 0-.944-.19-1.812.064-.262.077-.28.51-.019.587.868.254.924-.026 1.829-.026.907 0 .907-.064 1.812-.064s.905-.023 1.81-.023c.907 0 .907.121 1.812.121s.926-.262 1.823-.124c.318.05.286.196.548.378.082.056.069.074.148.13.04.026 0 .085.042.108.03.014.059.064.09.072.149.018.355.032.519.029-.05-.151-.164-.318-.233-.447-.021-.027-.05-.043-.074-.066-.04-.03-.013-.064-.053-.093-.077-.053-.286-.048-.196-.069.291-.069.331-.108.617-.016.307.098.27.188.534.37.082.056.043.107.125.162.04.027.082-.037.124-.01.03.013.016.103.05.113.146.019.28.01.442.008-.05-.15-.159-.235-.227-.365-.022-.026.026-.092.002-.116-.04-.03-.063.003-.103-.027-.077-.053-.236-.045-.146-.066.291-.069.329-.19.612-.098.304.098.262.215.524.397.082.056.095.035.177.09.04.03-.013.1.029.127.029.013.066-.003.098.005.148.019.251.042.413.04-.05-.151-.112-.238-.175-.365-.021-.027 0-.085-.024-.106z" fill="#fff"/></svg>