<svg xmlns="http://www.w3.org/2000/svg" viewBox="0 0 13.419 1.847" height="7" width="51"><path d="M.26 1.42c-.067.13-.125.215-.175.366.164.003.267-.021.412-.04.032-.01.07.008.098-.005.043-.026-.01-.098.03-.127.081-.055.095-.034.177-.09.262-.182.22-.299.524-.397.285-.092.32.03.61.098.09.021-.068.016-.145.066-.04.03-.063-.003-.103.027-.024.024.024.09.003.116-.07.13-.175.215-.228.365.164.003.296.011.442-.008.034-.01.019-.1.05-.113.043-.027.085.037.125.01.082-.055.042-.106.124-.161.262-.183.228-.273.534-.37.286-.093.326-.053.617.015.09.022-.12.016-.196.07-.04.026-.013.063-.053.092-.024.024-.053.04-.074.066-.069.13-.182.296-.233.447.164.003.37-.008.519-.03.032-.01.06-.057.09-.07.042-.027.003-.083.042-.109.08-.056.066-.074.148-.13.262-.182.23-.328.548-.378.894-.138.915.124 1.823.124.905 0 .905-.121 1.812-.121.905 0 .905.023 1.81.023s.905.064 1.813.064c.904 0 .96.283 1.828.026.262-.076.243-.51-.019-.587-.868-.254-.905-.063-1.812-.063-.91 0-.91.055-1.815.055-.905 0-.905.024-1.81.024S6.871.68 5.966.68s-.926.177-1.82.04C3.829.67 3.932.423 3.67.24 3.59.186 3.559.226 3.48.17 3.44.142 3.4.2 3.357.173 3.327.16 3.351.02 3.317.012c-.148-.019-.262.048-.423.048.052.148.037.27.103.4.018.028.127-.022.148.002.04.03-.021.109.018.138.077.053.286.055.196.076-.29.07-.325.082-.611-.01C2.445.569 2.527.423 2.265.24c-.08-.056-.087-.048-.167-.103-.04-.027-.066.008-.108-.019-.032-.013-.05-.042-.085-.05a3.498 3.498 0 0 0-.45-.032c.053.148.151.254.217.384.019.029.032.037.053.06.04.03.069-.013.111.014.077.053.204.135.111.156-.29.069-.322.116-.606.024-.304-.098-.238-.228-.5-.408C.76.212.706.286.627.23.587.204.643.124.601.098.569.085.54.058.505.05.357.032.161 0 0 0c.053.148.198.291.265.42.018.03.055.011.079.035.04.03.018.056.058.082.08.056.053.095.132.15.188.13.336.006.336.231s-.16.08-.351.21c-.08.055-.082.052-.164.108-.04.026-.035.042-.072.071-.024.024 0 .08-.024.106z" fill="#fff"/></svg>